<?xml version="1.0" encoding="UTF-8"?>
<svg id="Layer_1" data-name="Layer 1" xmlns="http://www.w3.org/2000/svg" viewBox="0 0 963 251">
  <defs>
    <style>
      .cls-1 {
        fill: #fff;
      }

      .cls-2 {
        fill-rule: evenodd;
      }

      .cls-2, .cls-3 {
        fill: #b40c01;
      }

      .cls-4 {
        fill: none;
        stroke: #b40c01;
        stroke-miterlimit: 22.93;
        stroke-width: .43px;
      }
    </style>
  </defs>
  <path class="cls-2" d="M80.04,128.42c.09-6.87.65-13.74,1.75-20.44,2.36-14.32,11.07-25.95,11.13-26.03.19-.25.75-.96.96-1.2,13.99-16.44,40.01-14.03,54.51.41,2.97,2.95,2.19,4.03,6.29,4.87,4.17-8.9-28.09-30.99-52.17-17.55-3.97,2.21-4.7,1.85-7.63,4.51-7.41,6.74-13.74,15.28-16.83,29.2-5.26,23.7,1.42,68.08,1.98,26.24ZM104.4,175.86c3.5-1,3.98-1.9,5.84-12.01.91-4.94,1.76-11.82,1.36-16.84-.96-12.25-3.33-18.76-6.26-29.4-3.63-13.19,6.34-30.33,21.37-20.84l2.36,2.01c1.3,1.46,1.73,3.84,4.61,3.25,9.8-1.98-19.46-27.58-31.45-.74-8.52,19.08,12.4,37.82,2.25,67.65-.17.51-1.16,3.26-1.16,3.41-.39,6.48-.5,1.02,1.08,3.5ZM93.46,170.23c2.2-1.02,2.34,2.8,3.9-10.38,3.59-30.38-15.48-49.33,5.82-70.86,5.13-5.19,6.88-1.97,7.66-7.78-4.29-2.57-6.14.57-9.52,3.62-25.38,22.92-5.39,43.42-8.18,73.01-.47,4.95-2.92,9.87.31,12.39ZM168.11,145.91c0,12.87-1.22,25.64-5.51,37.31-.7,1.91-1.27,2.88-2.07,4.52-.22.45-1.01,1.97-1.07,2.29l.08,2.51c.02.19.2.55.3.83,8.1.45,12.27-35.5,12.26-44.17-.02-20.48-2.15-36.63-9.29-54.77-1.57-3.99-1.27-4.12-4.84-5.16-2.79,4.83.17,4.89,2.71,11.59,4.38,11.57,7.43,32.49,7.43,45.06ZM46.92,173.76c18.59-1.27,10.12-28.87,9.52-34.52-.81-7.55-1.15-15.08-.74-22.76l1.77-16.6c-.11-5.49.89-2.48-1.63-5.02-5.04,1.29-4.64,13.31-4.91,18.26-1.74,32.14,8.41,44.33.91,52.35-4.11,4.4-4.6,1.34-4.92,8.29ZM125.17,209.88c-23.97-.02-32.96-14.29-42.38-11.56.58,5.14,2.63,3.43,7.66,5.15,9.57,3.29,35.57,22,62.34.58,1.93-1.54,6.18-4.77,4.12-8-3.24-.35-9.71,13.84-31.74,13.82ZM144.85,164.71c4.19-1.65,3.48-5.15,3.81-15.51.47-14.66-1.5-27.77-7.34-41.28-2.43-5.62-.52-4.55-5.22-4.32-1.96,3.88,1.93,8.2,3.31,11.62,1.94,4.79,2.88,9.32,3.82,14.98,1.4,8.47,1.44,16.9.74,25.58l-.12,6.35c.5,2.58-.19.84,1,2.58ZM56.23,195.23c9.81-.65,23.75-17.58,27.69-30.41.9-2.94,1.43-5.09,1.9-8,.72-4.47,1.13-6.39-1.11-9.35-1.79.76-2.43-1.08-3.18,6.07-1.66,15.74-7.91,27.24-21.33,35.68-5.04,3.17-4.2.47-3.97,6.02ZM113.47,78.13c2.83,10.46,6.6-2.23,22.37,11.21l8.73,8.7c.14.18.28.48.43.66,2.4,2.91.49,2.64,5.94,2.61-.34-5.62-1.75-6.31-5.25-9.83-7.79-7.85-19.92-16.52-32.22-13.34ZM151.55,107.47c-2.92,4.17,4.06,13.1,4.39,34.06.07,4.51-.15,9.55.52,13.41,3.82-.74,4.34,2.09,3.81-12.32-.18-4.94-.41-9.63-1.09-14.45-.75-5.33-2.75-21.67-7.63-20.71ZM109.86,199.01c3.21-1.36,2.1-.74,5.55-8.16,1.84-3.95,3.15-6.76,4.44-10.89,1.11-3.57,1.88-7.82,2.59-11.47,1.03-5.29,2.79-8.87-.55-11.43-4.46,1.86-2.21,16.26-10.39,33.05-2.22,4.55-5.09,5.94-1.63,8.9ZM63.15,128.18c-1.17,6.74,1.05,20.6,2.34,26.04,1.25,5.28,1.39,5.57,5.54,5.95.33-2.11-3.48-23.68-3.29-31.75l-4.59-.23ZM85.23,29.51c4.73-2.59,4.87-.3,5.92-4.95-6.27-4.59-19.78,9.23-23.78,13.29-2.72,2.76-5.82,6.79-7.77,8.61-.26.26-3.52,3.42-6.25,9.15-12.73,26.8-15.82,48.7-13.16,79.19l3.47,23.75c1.03,4.36.06,3.98,3.52,5.61,2.95-3.71-1.51-20.24-2.26-31.86-.86-13.21-.71-23.2,1.01-36.31,1.45-11.02,4.09-20.51,8.21-29.96,1.86-4.26,4.31-8.95,6.26-12.29,5.38-9.2,15.55-19.16,24.83-24.25ZM144.08,36.59c2.19,5.23,10.17,5.19,18.84,13.66,3.68,3.59,1.89,4.66,8.08,3.72.14-5.54-1.99-5.97-11.25-12.55-2.12-1.5-12.94-8.87-15.66-4.83ZM78.95,219.97c.3,3.38-1.58,2.7,5.3,6.23,5.92,3.03,20.09,10.98,25.59,8.27-.87-3.02,2.21-1.73-6.65-4.18-12.94-3.57-19.92-11.9-24.24-10.32ZM51.06,185.1c7.5-.04,14.07-7.98,18.15-14.28,5.04-7.78,2.03-7.71,1.3-8.75-6.6,1.94-1.86,8.65-15.1,16.74-4.87,2.98-4.72-.02-4.35,6.28ZM130.64,179.81c3.91-.82,3.4-.83,4.71-12.58.55-4.92,1.22-11.42.12-15.7-5.8.91-2.86-.27-4.17,13.2-.47,4.82-2.43,11.43-.66,15.08ZM69.8,212.6c4.28,5.45,6.99-4.82,21.11,3.61,3.3,1.97,3.53,3.35,6.91,1.86-.63-4.4-.25-2.48-4.75-5.03-8.97-5.08-20.57-6.5-23.28-.44ZM77.65,193.45c3.08-.21,5.61-2.83,7.72-5.25,4.96-5.69,4.67-6.52,3.37-9.12-3.76.43-11.79,10.2-11.09,14.37ZM124.08,200.79c2.33-.87,1.53,1.98,5.41-7.86.31-.78,1.56-4.5,1.65-5.01.89-5.41.38-2.77-1.59-4.28-2.39,1.61-.78-1.19-2.58,3.35-.65,1.64-1.06,3.49-1.63,4.9-1.55,3.87-3.24,5.4-1.26,8.9ZM63.84,206.29c1.32.32,13.98-2.07,13.55-7.19-4.55-1.8-12,2.63-12.87,3.35-3.97,3.24-.73,3.72-.68,3.84ZM155.28,174.73c4.01-.13,3.48-2.53,4.04-6.73.68-5.15,1.87-6.18-2.58-7.54-1.74,3.07-2.77,10.19-1.46,14.27ZM93.42,191.98c4.81,1.48,10.83-9.48,8.19-12.57-2.49.87-8.77,10.51-8.77,10.52-.84,4.06-.1.6.58,2.05ZM138.64,56.52l-5.14-1.56-10.54-2.06c-4.18.43-2.06.43-3.37,1.4-1.38,3.84,4,2.91,7.85,3.31l2.86.63,8.02,2.19c4.64,4.05,6.08,2.74,12.89,9.18.81.77,1.51,1.27,2.37,1.98,7.62,6.28,13.01,15.53,17.6,26.13,10.6,24.48,7.4,52.59,9.58,60.15,4.3-1.21,3.76-1.33,3.35-15.24-.66-22.61-7.77-55.35-22.8-70.08-6.11-5.99-12.45-12.98-22.68-16.04ZM65.04,64.5c-4.5,2.98-9.71,18.73-9.27,23.79,5.47-.66,3.74-.36,5.55-6.34,1.13-3.73,2.03-5.11,2.91-8.45.83-.9,1.45-1.78,2.51-3.58.49-.83.62-1.27,1.17-2.09.76-1.13.94-1.3,1.61-1.73,3.89-9.54,13.03-16.57,20.64-21.86,3.96-2.75,9.28-4.46,14.74-6.13,5.44-1.66,13.33-1.05,17.95-3.23-.76-3.24.96-2.36-2.3-3.47-6.68-2.26-27.01,5.84-32.36,8.65-8.73,4.57-19.4,16.15-23.15,24.45ZM119.22,142.17l.42,11.92c5.03-.92,5.13.57,4.97-5.93-.09-3.59-.34-6.5-1.63-9.01-.04-7.45-2.89-19.24-6.62-23.97l-1.33-7.35c2.59-1.78.44-.52,3.74-1.46,18.2,24.53,7.02,40.27,16.24,40.63,2.88-6.34-3.02-28.02-7.91-36.79-2.9-5.2-2.23-5.82-8.31-7.92-9.19,1.09-8.91,8.48-5.42,15.82,2.46,7.26,5.22,15.54,5.85,24.06ZM178.74,182.4c3.18-1.87,3.25-5.42,3.01-9.94-3.58.42-2.82-.32-4.05,4.07-1.15,4.11-1.67,3.7,1.03,5.87ZM182.88,92.5s2.55.23,1.26-4.35c-1.15-4.05-2.57-2.22-4.31-2.15-1.14,3.21.65,6.8,3.05,6.5ZM174.86,186.57c-2.24,1.24-2.43,8.31,1.91,5.58,3.61-2.26,1.18-7.29-1.91-5.58ZM130.07,221.57c-20.5.09-4.68,8.9.06,3.5,17.55.87,43.31-18.66,42.53-27.12-5.79-1.17-3.66,5.01-17.69,14.99-5.23,3.71-16.78,8.44-24.9,8.63ZM108.05,57.99c1.98.88-2.74,1.54,2.84.77,2.21-.3,1.91-.69,3.01-1.62-1.93-5.52-6.28-3-5.85.84ZM136.28,197.2l-1.33,2.22c-.1.22-.71,1.47-.74,1.65-.8,4.5.64,2.64,2.99,2.99,1.36-2.67.85-.91,1.11-4.99,1.84-1.36,1.91-1.74,3.23-5.98,2.22-7.09,7.57-21.41,2.21-23.57-.52.7-6.9,25.03-7.47,27.68ZM107.82,222.44c3.17,1.95,2.13,2.06,5.17,0-.47-2.08.08-2.75-2.28-3.19-3.44-.64-2.74,1.34-2.89,3.19ZM74.72,88.19c.01-2.18-.33-2.43-3.12-2.51-2.44,6.47-4.52,9.99-6.35,18.93-1.23,6.03-2.63,11.39-.21,15.37,7.14-1.47.77-7.16,8.97-29.02l.71-2.76ZM97.96,59.53c-3.43,1.83-5.19,2.17-5.21,6.33,4.24.67,3.43.61,6.2-2.07l4.6-2.87c-.09-.24,3.44-5.48-5.59-1.39ZM182.63,98.9l1.07,3.58c3.03-1.49,2.55-.66,3.37-3.39-1.69-1.55,1.43-1.2-1.91-1.09-2.16.07-1.5.33-2.53.91ZM67.74,128.41l-.81-4.03c-5.62-.46-1.36-.17-2.82.97-.42.63-.73,1.54-.93,2.65l4.56.4ZM152.49,185.65c2.15.04,2.54-.23,2.74-3.11l-3.55-.5c-.89,6.16-.44,2.12.81,3.61ZM93.06,173.87c-1.68.33-5.87.25-3.29,2.95,2.56,2.68,2.72-1.22,3.29-2.95ZM140.26,54.39c.04-3.65,1.16-2.61-3.97-3.42.86,2.11,1.78,2.67,3.97,3.42ZM174.2,75.78c.95,2.39-.69,1.43,2.36,2.28,2.11-1.18.99,1.73,1.97-2.27l-8.27-12.86c-4.45-5.44-13.69-12.01-21.29-15.21-13.17-5.56-27.21-7.03-41.25-3.51l-5.03,1.98c-13.31,2.86-30.92,22.96-31.08,32.03-.1,5.36-.13,1.5,1.08,3.17,4.02-1.25.18,2.54,5.44-7.69,4.21-8.18,12.26-17.92,21.17-20.96l6.3-2.96c14.5-3.69,28.58-2.83,41.98,2.68,8.24,3.39,16.21,9.71,21.44,16.13,2.82,3.46,3.27,5.04,5.18,7.19ZM124.82,35.02c1.76,1.71.03.5,2.53,1.01l.14-3.7c-2.01.89-1.22-2.25-2.67,2.69ZM136.08,33.04l-1.01-.68c-4.29-.33-2.57-.98-5.47.94,0,0-1.09,4.76,5.31,3.6,2.76-.5,1.13-.26,2.66-1.44.31-3.66-.56-1.55-1.5-2.42ZM134.79,235.12c.43-.05,14.07-4.3,26.27-9.66,11.18-4.91,21.01-10.98,21.37-11.07,6.97-1.89,11.53-8.33,10.72-16.47-.81-8.12-1.83-7.62,1.83-13.92,2.73-4.7,1.22-7.12-.93-10.88,10.08-8.27,4.09-5.03,3.93-22.38,29.07-9.74,5.55-14.95-1.74-43.14-2.04-7.89-1.2-42.4-15.44-58.26-7.77-11.23-8.02-11.66-18.47-20.24-8.45-5.86-18.88-10.3-31.44-12.35-11.28-1.83-18.98-.44-29.32,1.71-5.98,1.25-6.51.3-6.78,5.17,3.84,1.8,10.09-1.55,15.17-2.29,25.11-3.69,50.24,7.27,65.73,27.24l1,1.66c7.1,12.11,13.63,28.83,14.18,46.45.86,27.35,16.07,34.97,16.33,44.87-5.17,5.1-10.18,3.7-12.72,8.06-2.42,4.16.89,12.7.95,18.36l-6.6,2.74c-.11,8.05,3.47,2.3,3.22,8.89-.09,2.39-3.03,5.86-3.7,9.54-1.61,8.82,5.14,14.31-3.4,20.56l-2.68-.05-23.3,14.11-27.13,9.18,2.96,2.17Z"/>
  <path class="cls-4" d="M80.04,128.42c.09-6.87.65-13.74,1.75-20.44,2.36-14.32,11.07-25.95,11.13-26.03.19-.25.75-.96.96-1.2,13.99-16.44,40.01-14.03,54.51.41,2.97,2.95,2.19,4.03,6.29,4.87,4.17-8.9-28.09-30.99-52.17-17.55-3.97,2.21-4.7,1.85-7.63,4.51-7.41,6.74-13.74,15.28-16.83,29.2-5.26,23.7,1.42,68.08,1.98,26.24ZM104.4,175.86c3.5-1,3.98-1.9,5.84-12.01.91-4.94,1.76-11.82,1.36-16.84-.96-12.25-3.33-18.76-6.26-29.4-3.63-13.19,6.34-30.33,21.37-20.84l2.36,2.01c1.3,1.46,1.73,3.84,4.61,3.25,9.8-1.98-19.46-27.58-31.45-.74-8.52,19.08,12.4,37.82,2.25,67.65-.17.51-1.16,3.26-1.16,3.41-.39,6.48-.5,1.02,1.08,3.5ZM93.46,170.23c2.2-1.02,2.34,2.8,3.9-10.38,3.59-30.38-15.48-49.33,5.82-70.86,5.13-5.19,6.88-1.97,7.66-7.78-4.29-2.57-6.14.57-9.52,3.62-25.38,22.92-5.39,43.42-8.18,73.01-.47,4.95-2.92,9.87.31,12.39ZM168.11,145.91c0,12.87-1.22,25.64-5.51,37.31-.7,1.91-1.27,2.88-2.07,4.52-.22.45-1.01,1.97-1.07,2.29l.08,2.51c.02.19.2.55.3.83,8.1.45,12.27-35.5,12.26-44.17-.02-20.48-2.15-36.63-9.29-54.77-1.57-3.99-1.27-4.12-4.84-5.16-2.79,4.83.17,4.89,2.71,11.59,4.38,11.57,7.43,32.49,7.43,45.06ZM46.92,173.76c18.59-1.27,10.12-28.87,9.52-34.52-.81-7.55-1.15-15.08-.74-22.76l1.77-16.6c-.11-5.49.89-2.48-1.63-5.02-5.04,1.29-4.64,13.31-4.91,18.26-1.74,32.14,8.41,44.33.91,52.35-4.11,4.4-4.6,1.34-4.92,8.29ZM125.17,209.88c-23.97-.02-32.96-14.29-42.38-11.56.58,5.14,2.63,3.43,7.66,5.15,9.57,3.29,35.57,22,62.34.58,1.93-1.54,6.18-4.77,4.12-8-3.24-.35-9.71,13.84-31.74,13.82ZM144.85,164.71c4.19-1.65,3.48-5.15,3.81-15.51.47-14.66-1.5-27.77-7.34-41.28-2.43-5.62-.52-4.55-5.22-4.32-1.96,3.88,1.93,8.2,3.31,11.62,1.94,4.79,2.88,9.32,3.82,14.98,1.4,8.47,1.44,16.9.74,25.58l-.12,6.35c.5,2.58-.19.84,1,2.58ZM56.23,195.23c9.81-.65,23.75-17.58,27.69-30.41.9-2.94,1.43-5.09,1.9-8,.72-4.47,1.13-6.39-1.11-9.35-1.79.76-2.43-1.08-3.18,6.07-1.66,15.74-7.91,27.24-21.33,35.68-5.04,3.17-4.2.47-3.97,6.02ZM113.47,78.13c2.83,10.46,6.6-2.23,22.37,11.21l8.73,8.7c.14.18.28.48.43.66,2.4,2.91.49,2.64,5.94,2.61-.34-5.62-1.75-6.31-5.25-9.83-7.79-7.85-19.92-16.52-32.22-13.34ZM151.55,107.47c-2.92,4.17,4.06,13.1,4.39,34.06.07,4.51-.15,9.55.52,13.41,3.82-.74,4.34,2.09,3.81-12.32-.18-4.94-.41-9.63-1.09-14.45-.75-5.33-2.75-21.67-7.63-20.71ZM109.86,199.01c3.21-1.36,2.1-.74,5.55-8.16,1.84-3.95,3.15-6.76,4.44-10.89,1.11-3.57,1.88-7.82,2.59-11.47,1.03-5.29,2.79-8.87-.55-11.43-4.46,1.86-2.21,16.26-10.39,33.05-2.22,4.55-5.09,5.94-1.63,8.9ZM63.15,128.18c-1.17,6.74,1.05,20.6,2.34,26.04,1.25,5.28,1.39,5.57,5.54,5.95.33-2.11-3.48-23.68-3.29-31.75l-4.59-.23ZM85.23,29.51c4.73-2.59,4.87-.3,5.92-4.95-6.27-4.59-19.78,9.23-23.78,13.29-2.72,2.76-5.82,6.79-7.77,8.61-.26.26-3.52,3.42-6.25,9.15-12.73,26.8-15.82,48.7-13.16,79.19l3.47,23.75c1.03,4.36.06,3.98,3.52,5.61,2.95-3.71-1.51-20.24-2.26-31.86-.86-13.21-.71-23.2,1.01-36.31,1.45-11.02,4.09-20.51,8.21-29.96,1.86-4.26,4.31-8.95,6.26-12.29,5.38-9.2,15.55-19.16,24.83-24.25ZM144.08,36.59c2.19,5.23,10.17,5.19,18.84,13.66,3.68,3.59,1.89,4.66,8.08,3.72.14-5.54-1.99-5.97-11.25-12.55-2.12-1.5-12.94-8.87-15.66-4.83ZM78.95,219.97c.3,3.38-1.58,2.7,5.3,6.23,5.92,3.03,20.09,10.98,25.59,8.27-.87-3.02,2.21-1.73-6.65-4.18-12.94-3.57-19.92-11.9-24.24-10.32ZM51.06,185.1c7.5-.04,14.07-7.98,18.15-14.28,5.04-7.78,2.03-7.71,1.3-8.75-6.6,1.94-1.86,8.65-15.1,16.74-4.87,2.98-4.72-.02-4.35,6.28ZM130.64,179.81c3.91-.82,3.4-.83,4.71-12.58.55-4.92,1.22-11.42.12-15.7-5.8.91-2.86-.27-4.17,13.2-.47,4.82-2.43,11.43-.66,15.08ZM69.8,212.6c4.28,5.45,6.99-4.82,21.11,3.61,3.3,1.97,3.53,3.35,6.91,1.86-.63-4.4-.25-2.48-4.75-5.03-8.97-5.08-20.57-6.5-23.28-.44ZM77.65,193.45c3.08-.21,5.61-2.83,7.72-5.25,4.96-5.69,4.67-6.52,3.37-9.12-3.76.43-11.79,10.2-11.09,14.37ZM124.08,200.79c2.33-.87,1.53,1.98,5.41-7.86.31-.78,1.56-4.5,1.65-5.01.89-5.41.38-2.77-1.59-4.28-2.39,1.61-.78-1.19-2.58,3.35-.65,1.64-1.06,3.49-1.63,4.9-1.55,3.87-3.24,5.4-1.26,8.9ZM63.84,206.29c1.32.32,13.98-2.07,13.55-7.19-4.55-1.8-12,2.63-12.87,3.35-3.97,3.24-.73,3.72-.68,3.84ZM155.28,174.73c4.01-.13,3.48-2.53,4.04-6.73.68-5.15,1.87-6.18-2.58-7.54-1.74,3.07-2.77,10.19-1.46,14.27ZM93.42,191.98c4.81,1.48,10.83-9.48,8.19-12.57-2.49.87-8.77,10.51-8.77,10.52-.84,4.06-.1.6.58,2.05ZM138.64,56.52l-5.14-1.56-10.54-2.06c-4.18.43-2.06.43-3.37,1.4-1.38,3.84,4,2.91,7.85,3.31l2.86.63,8.02,2.19c4.64,4.05,6.08,2.74,12.89,9.18.81.77,1.51,1.27,2.37,1.98,7.62,6.28,13.01,15.53,17.6,26.13,10.6,24.48,7.4,52.59,9.58,60.15,4.3-1.21,3.76-1.33,3.35-15.24-.66-22.61-7.77-55.35-22.8-70.08-6.11-5.99-12.45-12.98-22.68-16.04ZM65.04,64.5c-4.5,2.98-9.71,18.73-9.27,23.79,5.47-.66,3.74-.36,5.55-6.34,1.13-3.73,2.03-5.11,2.91-8.45.83-.9,1.45-1.78,2.51-3.58.49-.83.62-1.27,1.17-2.09.76-1.13.94-1.3,1.61-1.73,3.89-9.54,13.03-16.57,20.64-21.86,3.96-2.75,9.28-4.46,14.74-6.13,5.44-1.66,13.33-1.05,17.95-3.23-.76-3.24.96-2.36-2.3-3.47-6.68-2.26-27.01,5.84-32.36,8.65-8.73,4.57-19.4,16.15-23.15,24.45ZM119.22,142.17l.42,11.92c5.03-.92,5.13.57,4.97-5.93-.09-3.59-.34-6.5-1.63-9.01-.04-7.45-2.89-19.24-6.62-23.97l-1.33-7.35c2.59-1.78.44-.52,3.74-1.46,18.2,24.53,7.02,40.27,16.24,40.63,2.88-6.34-3.02-28.02-7.91-36.79-2.9-5.2-2.23-5.82-8.31-7.92-9.19,1.09-8.91,8.48-5.42,15.82,2.46,7.26,5.22,15.54,5.85,24.06ZM178.74,182.4c3.18-1.87,3.25-5.42,3.01-9.94-3.58.42-2.82-.32-4.05,4.07-1.15,4.11-1.67,3.7,1.03,5.87ZM182.88,92.5s2.55.23,1.26-4.35c-1.15-4.05-2.57-2.22-4.31-2.15-1.14,3.21.65,6.8,3.05,6.5ZM174.86,186.57c-2.24,1.24-2.43,8.31,1.91,5.58,3.61-2.26,1.18-7.29-1.91-5.58ZM130.07,221.57c-20.5.09-4.68,8.9.06,3.5,17.55.87,43.31-18.66,42.53-27.12-5.79-1.17-3.66,5.01-17.69,14.99-5.23,3.71-16.78,8.44-24.9,8.63ZM108.05,57.99c1.98.88-2.74,1.54,2.84.77,2.21-.3,1.91-.69,3.01-1.62-1.93-5.52-6.28-3-5.85.84ZM136.28,197.2l-1.33,2.22c-.1.22-.71,1.47-.74,1.65-.8,4.5.64,2.64,2.99,2.99,1.36-2.67.85-.91,1.11-4.99,1.84-1.36,1.91-1.74,3.23-5.98,2.22-7.09,7.57-21.41,2.21-23.57-.52.7-6.9,25.03-7.47,27.68ZM107.82,222.44c3.17,1.95,2.13,2.06,5.17,0-.47-2.08.08-2.75-2.28-3.19-3.44-.64-2.74,1.34-2.89,3.19ZM74.72,88.19c.01-2.18-.33-2.43-3.12-2.51-2.44,6.47-4.52,9.99-6.35,18.93-1.23,6.03-2.63,11.39-.21,15.37,7.14-1.47.77-7.16,8.97-29.02l.71-2.76ZM97.96,59.53c-3.43,1.83-5.19,2.17-5.21,6.33,4.24.67,3.43.61,6.2-2.07l4.6-2.87c-.09-.24,3.44-5.48-5.59-1.39ZM182.63,98.9l1.07,3.58c3.03-1.49,2.55-.66,3.37-3.39-1.69-1.55,1.43-1.2-1.91-1.09-2.16.07-1.5.33-2.53.91ZM67.74,128.41l-.81-4.03c-5.62-.46-1.36-.17-2.82.97-.42.63-.73,1.54-.93,2.65l4.56.4ZM152.49,185.65c2.15.04,2.54-.23,2.74-3.11l-3.55-.5c-.89,6.16-.44,2.12.81,3.61ZM93.06,173.87c-1.68.33-5.87.25-3.29,2.95,2.56,2.68,2.72-1.22,3.29-2.95ZM140.26,54.39c.04-3.65,1.16-2.61-3.97-3.42.86,2.11,1.78,2.67,3.97,3.42ZM174.2,75.78c.95,2.39-.69,1.43,2.36,2.28,2.11-1.18.99,1.73,1.97-2.27l-8.27-12.86c-4.45-5.44-13.69-12.01-21.29-15.21-13.17-5.56-27.21-7.03-41.25-3.51l-5.03,1.98c-13.31,2.86-30.92,22.96-31.08,32.03-.1,5.36-.13,1.5,1.08,3.17,4.02-1.25.18,2.54,5.44-7.69,4.21-8.18,12.26-17.92,21.17-20.96l6.3-2.96c14.5-3.69,28.58-2.83,41.98,2.68,8.24,3.39,16.21,9.71,21.44,16.13,2.82,3.46,3.27,5.04,5.18,7.19ZM124.82,35.02c1.76,1.71.03.5,2.53,1.01l.14-3.7c-2.01.89-1.22-2.25-2.67,2.69ZM136.08,33.04l-1.01-.68c-4.29-.33-2.57-.98-5.47.94,0,0-1.09,4.76,5.31,3.6,2.76-.5,1.13-.26,2.66-1.44.31-3.66-.56-1.55-1.5-2.42ZM134.79,235.12c.43-.05,14.07-4.3,26.27-9.66,11.18-4.91,21.01-10.98,21.37-11.07,6.97-1.89,11.53-8.33,10.72-16.47-.81-8.12-1.83-7.62,1.83-13.92,2.73-4.7,1.22-7.12-.93-10.88,10.08-8.27,4.09-5.03,3.93-22.38,29.07-9.74,5.55-14.95-1.74-43.14-2.04-7.89-1.2-42.4-15.44-58.26-7.77-11.23-8.02-11.66-18.47-20.24-8.45-5.86-18.88-10.3-31.44-12.35-11.28-1.83-18.98-.44-29.32,1.71-5.98,1.25-6.51.3-6.78,5.17,3.84,1.8,10.09-1.55,15.17-2.29,25.11-3.69,50.24,7.27,65.73,27.24l1,1.66c7.1,12.11,13.63,28.83,14.18,46.45.86,27.35,16.07,34.97,16.33,44.87-5.17,5.1-10.18,3.7-12.72,8.06-2.42,4.16.89,12.7.95,18.36l-6.6,2.74c-.11,8.05,3.47,2.3,3.22,8.89-.09,2.39-3.03,5.86-3.7,9.54-1.61,8.82,5.14,14.31-3.4,20.56l-2.68-.05-23.3,14.11-27.13,9.18,2.96,2.17Z"/>
  <path class="cls-1" d="M9.76,55.37H.34v-25.06C.34,13.66,13.89.12,30.53.12h33.05v9.42H30.53c-11.45,0-20.77,9.32-20.77,20.77v25.06Z"/>
  <path class="cls-1" d="M220.93,250.88h-33.05v-9.42h33.05c11.45,0,20.77-9.32,20.77-20.77v-25.06h9.42v25.06c0,16.65-13.54,30.19-30.19,30.19Z"/>
  <path class="cls-1" d="M251.11,55.37h-9.42v-25.06c0-11.45-9.32-20.77-20.77-20.77h-33.05V.12h33.05c16.64,0,30.19,13.54,30.19,30.19v25.06Z"/>
  <path class="cls-1" d="M63.58,250.88H30.53c-16.65,0-30.19-13.54-30.19-30.19v-25.06h9.42v25.06c0,11.45,9.32,20.77,20.77,20.77h33.05v9.42Z"/>
  <path class="cls-3" d="M434.04,124.03c4.27,0,7.78-1.65,10.52-4.94,2.74-3.29,4.11-7.7,4.11-13.22s-1.37-9.93-4.11-13.22c-2.74-3.29-6.25-4.94-10.52-4.94s-7.8,1.65-10.57,4.94c-2.78,3.29-4.17,7.7-4.17,13.22s1.39,9.93,4.17,13.22c2.78,3.29,6.3,4.94,10.57,4.94M434.04,139.63c-6.05,0-11.48-1.44-16.29-4.33-4.81-2.88-8.56-6.89-11.27-12.01-2.71-5.12-4.06-10.93-4.06-17.43s1.35-12.31,4.06-17.43c2.71-5.12,6.46-9.12,11.27-12.01,4.81-2.88,10.23-4.33,16.29-4.33s11.46,1.44,16.23,4.33c4.77,2.88,8.51,6.89,11.21,12.01,2.71,5.12,4.06,10.93,4.06,17.43s-1.35,12.31-4.06,17.43c-2.71,5.12-6.44,9.12-11.21,12.01-4.77,2.88-10.18,4.33-16.23,4.33ZM382.89,63.95c-3.06,0-5.55-1.02-7.48-3.05-1.92-2.03-2.88-4.55-2.88-7.56s.96-5.53,2.88-7.56c1.92-2.03,4.41-3.05,7.48-3.05s5.55.97,7.48,2.92c1.92,1.95,2.88,4.39,2.88,7.31,0,3.17-.96,5.79-2.88,7.86-1.92,2.07-4.41,3.11-7.48,3.11ZM374.56,73.09h16.66v65.57h-16.66v-65.57ZM331.42,123.79c4.56,0,7.99-.85,10.31-2.56,2.31-1.71,3.47-4.35,3.47-7.92,0-7.07-4.59-10.6-13.78-10.6h-20.18v21.09h20.18ZM311.23,68.21v20.11h17.19c4.27,0,7.51-.85,9.72-2.56,2.21-1.71,3.31-4.23,3.31-7.56s-1.1-5.83-3.31-7.5c-2.21-1.67-5.45-2.5-9.72-2.5h-17.19ZM348.93,94.29c4.27,1.54,7.62,4.12,10.04,7.74,2.42,3.62,3.63,8.06,3.63,13.35,0,7.48-2.55,13.22-7.64,17.25-5.09,4.02-12.51,6.03-22.27,6.03h-38.66V53.34h36.52c9.11,0,16.11,1.99,20.98,5.97,4.88,3.98,7.31,9.38,7.31,16.21,0,4.14-.87,7.84-2.62,11.09-1.74,3.25-4.18,5.81-7.31,7.68Z"/>
  <path class="cls-1" d="M942.9,81.74c1.99-3.17,4.68-5.57,8.06-7.19,3.38-1.63,7.28-2.44,11.69-2.44v17.55c-1.85-.16-3.1-.24-3.74-.24-4.77,0-8.51,1.52-11.21,4.57-2.71,3.05-4.06,7.62-4.06,13.71v30.96h-16.66v-65.57h15.91v8.65ZM886.09,86.49c-3.77,0-6.94,1.22-9.5,3.66-2.56,2.44-4.13,5.77-4.7,9.99h28.3c-.57-4.14-2.14-7.46-4.7-9.93-2.56-2.48-5.7-3.72-9.4-3.72ZM915.88,106.12c0,.24-.11,1.95-.32,5.12h-43.46c.78,4.06,2.63,7.27,5.55,9.63,2.92,2.36,6.55,3.53,10.89,3.53,2.99,0,5.64-.51,7.96-1.52,2.31-1.02,4.47-2.62,6.46-4.81l8.86,10.97c-5.41,7.07-13.31,10.6-23.71,10.6-6.48,0-12.21-1.44-17.19-4.33-4.98-2.88-8.83-6.89-11.53-12.01-2.71-5.12-4.06-10.93-4.06-17.43s1.33-12.21,4-17.37c2.67-5.16,6.34-9.18,11-12.07,4.66-2.88,9.88-4.33,15.64-4.33s10.72,1.38,15.27,4.14c4.56,2.76,8.13,6.72,10.73,11.88,2.6,5.16,3.9,11.15,3.9,17.98ZM812.62,119.89c4.41,0,8.03-1.48,10.84-4.45,2.81-2.97,4.22-6.85,4.22-11.64s-1.41-8.67-4.22-11.64c-2.81-2.97-6.43-4.45-10.84-4.45s-8.04,1.48-10.89,4.45c-2.85,2.97-4.27,6.85-4.27,11.64s1.42,8.67,4.27,11.64c2.85,2.97,6.48,4.45,10.89,4.45ZM844.12,73.09v54.6c0,12.03-2.74,20.96-8.22,26.81-5.48,5.85-13.49,8.78-24.03,8.78-5.55,0-10.82-.77-15.81-2.32-4.98-1.54-9.11-3.78-12.39-6.7l6.62-13.65c2.42,2.28,5.48,4.08,9.18,5.42,3.7,1.34,7.4,2.01,11.11,2.01,5.77,0,10.02-1.48,12.76-4.45,2.74-2.97,4.11-7.46,4.11-13.47v-2.8c-4.34,5.44-10.39,8.17-18.15,8.17-5.27,0-10.09-1.32-14.47-3.96-4.38-2.64-7.85-6.36-10.41-11.15-2.56-4.79-3.84-10.32-3.84-16.58s1.28-11.78,3.84-16.58c2.56-4.79,6.03-8.51,10.41-11.15,4.38-2.64,9.2-3.96,14.47-3.96,8.33,0,14.67,3.13,19.01,9.38v-8.41h15.81ZM740.21,126.84c2.85,0,5.37-.75,7.58-2.25,2.21-1.5,3.77-3.72,4.7-6.64v-6.7h-11.43c-6.83,0-10.25,2.56-10.25,7.68,0,2.44.84,4.37,2.51,5.79,1.67,1.42,3.97,2.13,6.89,2.13ZM741.49,72.11c8.9,0,15.73,2.42,20.5,7.25,4.77,4.83,7.15,12.13,7.15,21.88v37.42h-15.59v-8.17c-3.13,6.09-8.97,9.14-17.51,9.14-4.41,0-8.24-.85-11.48-2.56-3.24-1.71-5.71-4.06-7.42-7.07-1.71-3.01-2.56-6.42-2.56-10.24,0-6.09,2.01-10.89,6.03-14.38,4.02-3.49,10.23-5.24,18.63-5.24h13.24c0-4.14-1.1-7.33-3.31-9.57-2.21-2.23-5.52-3.35-9.93-3.35-3.06,0-6.07.55-9.02,1.65-2.96,1.1-5.46,2.58-7.53,4.45l-5.98-13.28c3.13-2.52,6.89-4.47,11.27-5.85,4.38-1.38,8.88-2.07,13.51-2.07ZM679.45,72.11c7.12,0,12.87,2.44,17.25,7.31,4.38,4.87,6.57,12.11,6.57,21.69v37.54h-16.66v-34.61c0-5.2-1-9.08-2.99-11.64-1.99-2.56-4.88-3.84-8.65-3.84-4.2,0-7.55,1.48-10.04,4.45-2.49,2.97-3.74,7.37-3.74,13.22v32.42h-16.66v-65.57h15.91v7.68c2.21-2.76,4.95-4.9,8.22-6.4,3.28-1.5,6.87-2.25,10.79-2.25ZM600.53,126.84c2.85,0,5.38-.75,7.58-2.25,2.21-1.5,3.77-3.72,4.7-6.64v-6.7h-11.43c-6.83,0-10.25,2.56-10.25,7.68,0,2.44.84,4.37,2.51,5.79,1.67,1.42,3.97,2.13,6.89,2.13ZM601.81,72.11c8.9,0,15.73,2.42,20.5,7.25,4.77,4.83,7.15,12.13,7.15,21.88v37.42h-15.59v-8.17c-3.13,6.09-8.97,9.14-17.51,9.14-4.41,0-8.24-.85-11.48-2.56-3.24-1.71-5.71-4.06-7.42-7.07-1.71-3.01-2.56-6.42-2.56-10.24,0-6.09,2.01-10.89,6.03-14.38,4.02-3.49,10.23-5.24,18.63-5.24h13.24c0-4.14-1.1-7.33-3.31-9.57-2.21-2.23-5.52-3.35-9.93-3.35-3.06,0-6.07.55-9.02,1.65-2.95,1.1-5.46,2.58-7.53,4.45l-5.98-13.28c3.13-2.52,6.89-4.47,11.27-5.85,4.38-1.38,8.88-2.07,13.51-2.07ZM545.85,138.66l-.11-51.19-22,42.17h-7.8l-21.89-41.07v50.09h-16.23V53.34h14.31l27.98,53.02,27.55-53.02h14.2l.21,85.32h-16.23Z"/>
  <path class="cls-1" d="M959.95,208.18c-.76,0-1.42-.26-1.96-.8-.54-.53-.82-1.2-.82-2.02s.27-1.45.82-1.98c.55-.53,1.2-.8,1.96-.8s1.4.26,1.92.78c.52.52.78,1.19.78,2s-.27,1.49-.8,2.02c-.53.53-1.16.8-1.9.8ZM937.95,208.26c-2.15,0-4.23-.33-6.23-1-2-.67-3.57-1.53-4.72-2.59l1.51-3.19c1.09.98,2.49,1.78,4.19,2.39,1.7.61,3.45.92,5.25.92,2.37,0,4.14-.4,5.31-1.2,1.17-.8,1.76-1.87,1.76-3.21,0-.98-.32-1.78-.96-2.39-.64-.61-1.43-1.08-2.37-1.41-.94-.33-2.27-.69-3.98-1.1-2.15-.52-3.89-1.03-5.21-1.55-1.32-.52-2.45-1.31-3.39-2.39-.94-1.08-1.41-2.53-1.41-4.35,0-1.52.4-2.9,1.21-4.13.8-1.23,2.02-2.21,3.66-2.94,1.63-.73,3.66-1.1,6.09-1.1,1.69,0,3.35.22,4.98.65,1.63.44,3.04,1.06,4.21,1.88l-1.35,3.27c-1.2-.76-2.48-1.34-3.84-1.74-1.36-.39-2.7-.59-4-.59-2.31,0-4.05.42-5.21,1.27-1.16.84-1.74,1.93-1.74,3.27,0,.98.33,1.78.98,2.39.65.61,1.46,1.09,2.43,1.43.97.34,2.28.7,3.94,1.08,2.15.52,3.88,1.03,5.19,1.55,1.31.52,2.43,1.31,3.37,2.37.94,1.06,1.41,2.49,1.41,4.29,0,1.5-.41,2.87-1.23,4.1-.82,1.24-2.06,2.22-3.72,2.94-1.66.72-3.7,1.08-6.13,1.08ZM908.79,208.26c-2.15,0-4.23-.33-6.23-1-2-.67-3.57-1.53-4.72-2.59l1.51-3.19c1.09.98,2.49,1.78,4.19,2.39,1.7.61,3.45.92,5.25.92,2.37,0,4.14-.4,5.31-1.2,1.17-.8,1.76-1.87,1.76-3.21,0-.98-.32-1.78-.96-2.39-.64-.61-1.43-1.08-2.37-1.41-.94-.33-2.27-.69-3.98-1.1-2.15-.52-3.89-1.03-5.21-1.55-1.32-.52-2.45-1.31-3.39-2.39-.94-1.08-1.41-2.53-1.41-4.35,0-1.52.4-2.9,1.2-4.13.8-1.23,2.02-2.21,3.66-2.94,1.63-.73,3.66-1.1,6.09-1.1,1.69,0,3.35.22,4.98.65,1.63.44,3.04,1.06,4.21,1.88l-1.35,3.27c-1.2-.76-2.48-1.34-3.84-1.74-1.36-.39-2.7-.59-4-.59-2.31,0-4.05.42-5.21,1.27-1.16.84-1.74,1.93-1.74,3.27,0,.98.33,1.78.98,2.39.65.61,1.46,1.09,2.43,1.43.97.34,2.28.7,3.94,1.08,2.15.52,3.88,1.03,5.19,1.55,1.31.52,2.43,1.31,3.37,2.37.94,1.06,1.41,2.49,1.41,4.29,0,1.5-.41,2.87-1.23,4.1-.82,1.24-2.06,2.22-3.72,2.94-1.66.72-3.7,1.08-6.13,1.08ZM890.05,204.38v3.55h-20.75v-28.59h20.18v3.55h-16.09v8.78h14.34v3.47h-14.34v9.23h16.67ZM841.25,179.34h4.08v25.04h15.48v3.55h-19.57v-28.59ZM824.97,207.93l-.04-20.83-10.33,17.36h-1.88l-10.33-17.24v20.71h-3.92v-28.59h3.35l11.93,20.1,11.76-20.1h3.35l.04,28.59h-3.92ZM781.56,197.52l-6.17-14.01-6.17,14.01h12.34ZM782.99,200.78h-15.19l-3.15,7.15h-4.21l12.95-28.59h4.04l12.99,28.59h-4.29l-3.14-7.15ZM754.36,204.38v3.55h-20.75v-28.59h20.18v3.55h-16.09v8.78h14.34v3.47h-14.34v9.23h16.67ZM712.79,208.26c-2.15,0-4.23-.33-6.23-1-2-.67-3.57-1.53-4.72-2.59l1.51-3.19c1.09.98,2.49,1.78,4.19,2.39,1.7.61,3.45.92,5.25.92,2.37,0,4.14-.4,5.31-1.2,1.17-.8,1.76-1.87,1.76-3.21,0-.98-.32-1.78-.96-2.39-.64-.61-1.43-1.08-2.37-1.41-.94-.33-2.27-.69-3.98-1.1-2.15-.52-3.89-1.03-5.21-1.55-1.32-.52-2.45-1.31-3.39-2.39-.94-1.08-1.41-2.53-1.41-4.35,0-1.52.4-2.9,1.21-4.13.8-1.23,2.02-2.21,3.66-2.94,1.63-.73,3.66-1.1,6.09-1.1,1.69,0,3.35.22,4.98.65,1.63.44,3.04,1.06,4.21,1.88l-1.35,3.27c-1.2-.76-2.48-1.34-3.84-1.74-1.36-.39-2.7-.59-4-.59-2.31,0-4.05.42-5.21,1.27-1.16.84-1.74,1.93-1.74,3.27,0,.98.33,1.78.98,2.39.65.61,1.46,1.09,2.43,1.43.97.34,2.28.7,3.94,1.08,2.15.52,3.88,1.03,5.19,1.55,1.31.52,2.43,1.31,3.37,2.37.94,1.06,1.41,2.49,1.41,4.29,0,1.5-.41,2.87-1.23,4.1-.82,1.24-2.06,2.22-3.72,2.94-1.66.72-3.7,1.08-6.13,1.08ZM680.78,208.18c-.76,0-1.42-.26-1.96-.8-.54-.53-.82-1.2-.82-2.02s.27-1.45.82-1.98c.55-.53,1.2-.8,1.96-.8s1.4.26,1.92.78c.52.52.78,1.19.78,2s-.27,1.49-.8,2.02c-.53.53-1.16.8-1.9.8ZM669.6,204.38v3.55h-20.75v-28.59h20.18v3.55h-16.09v8.78h14.34v3.47h-14.34v9.23h16.67ZM626.39,195.76c2.59,0,4.56-.56,5.92-1.68,1.36-1.12,2.04-2.71,2.04-4.78s-.68-3.66-2.04-4.76c-1.36-1.1-3.34-1.65-5.92-1.65h-6.94v12.87h6.94ZM634.48,207.93l-6.17-8.78c-.76.05-1.36.08-1.8.08h-7.07v8.7h-4.08v-28.59h11.15c3.7,0,6.62.89,8.74,2.65,2.12,1.77,3.19,4.21,3.19,7.31,0,2.21-.54,4.08-1.63,5.64-1.09,1.55-2.64,2.68-4.66,3.39l6.78,9.6h-4.45ZM591.11,208.26c-3.81,0-6.78-1.09-8.91-3.27-2.12-2.18-3.19-5.31-3.19-9.39v-16.26h4.08v16.09c0,6.13,2.68,9.19,8.05,9.19,2.61,0,4.62-.76,6-2.27,1.39-1.51,2.08-3.82,2.08-6.92v-16.09h3.96v16.26c0,4.11-1.06,7.25-3.19,9.42-2.12,2.16-5.09,3.25-8.9,3.25ZM558.85,208.26c-2.86,0-5.44-.63-7.74-1.9-2.3-1.27-4.11-3.01-5.41-5.23-1.31-2.22-1.96-4.72-1.96-7.5s.65-5.28,1.96-7.5c1.31-2.22,3.12-3.96,5.43-5.23,2.31-1.27,4.9-1.9,7.76-1.9,2.23,0,4.27.37,6.13,1.12,1.85.75,3.43,1.86,4.74,3.33l-2.65,2.57c-2.15-2.26-4.83-3.39-8.05-3.39-2.12,0-4.04.48-5.76,1.43-1.72.95-3.06,2.27-4.02,3.94-.97,1.68-1.45,3.55-1.45,5.62s.48,3.94,1.45,5.62c.97,1.67,2.31,2.99,4.02,3.94,1.72.95,3.64,1.43,5.76,1.43,3.19,0,5.87-1.14,8.05-3.43l2.65,2.57c-1.31,1.47-2.89,2.59-4.76,3.35-1.87.76-3.91,1.14-6.15,1.14ZM535.79,204.38v3.55h-20.75v-28.59h20.18v3.55h-16.09v8.78h14.34v3.47h-14.34v9.23h16.67ZM494.22,208.26c-2.15,0-4.23-.33-6.23-1-2-.67-3.57-1.53-4.72-2.59l1.51-3.19c1.09.98,2.49,1.78,4.19,2.39,1.7.61,3.45.92,5.25.92,2.37,0,4.14-.4,5.31-1.2,1.17-.8,1.76-1.87,1.76-3.21,0-.98-.32-1.78-.96-2.39-.64-.61-1.43-1.08-2.37-1.41-.94-.33-2.27-.69-3.98-1.1-2.15-.52-3.89-1.03-5.21-1.55-1.32-.52-2.45-1.31-3.39-2.39-.94-1.08-1.41-2.53-1.41-4.35,0-1.52.4-2.9,1.21-4.13.8-1.23,2.02-2.21,3.66-2.94,1.63-.73,3.66-1.1,6.09-1.1,1.69,0,3.35.22,4.98.65,1.63.44,3.04,1.06,4.21,1.88l-1.35,3.27c-1.2-.76-2.48-1.34-3.84-1.74-1.36-.39-2.7-.59-4-.59-2.31,0-4.05.42-5.21,1.27-1.16.84-1.74,1.93-1.74,3.27,0,.98.33,1.78.98,2.39.65.61,1.46,1.09,2.43,1.43.97.34,2.28.7,3.94,1.08,2.15.52,3.88,1.03,5.19,1.55,1.31.52,2.43,1.31,3.37,2.37.94,1.06,1.41,2.49,1.41,4.29,0,1.5-.41,2.87-1.23,4.1-.82,1.24-2.06,2.22-3.72,2.94-1.66.72-3.7,1.08-6.13,1.08ZM462.2,208.18c-.76,0-1.42-.26-1.96-.8-.54-.53-.82-1.2-.82-2.02s.27-1.45.82-1.98c.55-.53,1.2-.8,1.96-.8s1.4.26,1.92.78c.52.52.78,1.19.78,2s-.27,1.49-.8,2.02c-.53.53-1.16.8-1.9.8ZM441.05,182.89h-9.8v-3.55h23.65v3.55h-9.8v25.04h-4.04v-25.04ZM413.33,195.76c2.59,0,4.56-.56,5.92-1.68,1.36-1.12,2.04-2.71,2.04-4.78s-.68-3.66-2.04-4.76c-1.36-1.1-3.34-1.65-5.92-1.65h-6.94v12.87h6.94ZM421.42,207.93l-6.17-8.78c-.76.05-1.36.08-1.8.08h-7.07v8.7h-4.09v-28.59h11.15c3.7,0,6.62.89,8.74,2.65,2.12,1.77,3.19,4.21,3.19,7.31,0,2.21-.54,4.08-1.63,5.64-1.09,1.55-2.64,2.68-4.66,3.39l6.78,9.6h-4.45ZM385.4,197.52l-6.17-14.01-6.17,14.01h12.34ZM386.83,200.78h-15.19l-3.15,7.15h-4.21l12.95-28.59h4.04l12.99,28.59h-4.29l-3.15-7.15ZM352.33,207.93l-.04-20.83-10.33,17.36h-1.88l-10.33-17.24v20.71h-3.92v-28.59h3.35l11.93,20.1,11.76-20.1h3.35l.04,28.59h-3.92ZM305,208.26c-2.15,0-4.23-.33-6.23-1-2-.67-3.57-1.53-4.72-2.59l1.51-3.19c1.09.98,2.49,1.78,4.19,2.39,1.7.61,3.45.92,5.25.92,2.37,0,4.14-.4,5.31-1.2,1.17-.8,1.76-1.87,1.76-3.21,0-.98-.32-1.78-.96-2.39-.64-.61-1.43-1.08-2.37-1.41-.94-.33-2.27-.69-3.98-1.1-2.15-.52-3.89-1.03-5.21-1.55-1.32-.52-2.45-1.31-3.39-2.39-.94-1.08-1.41-2.53-1.41-4.35,0-1.52.4-2.9,1.2-4.13.8-1.23,2.02-2.21,3.66-2.94,1.63-.73,3.66-1.1,6.09-1.1,1.69,0,3.35.22,4.98.65,1.63.44,3.04,1.06,4.21,1.88l-1.35,3.27c-1.2-.76-2.48-1.34-3.84-1.74-1.36-.39-2.7-.59-4-.59-2.31,0-4.05.42-5.21,1.27-1.16.84-1.74,1.93-1.74,3.27,0,.98.33,1.78.98,2.39.65.61,1.46,1.09,2.43,1.43.97.34,2.28.7,3.94,1.08,2.15.52,3.88,1.03,5.19,1.55,1.31.52,2.43,1.31,3.37,2.37.94,1.06,1.41,2.49,1.41,4.29,0,1.5-.41,2.87-1.23,4.1-.82,1.24-2.06,2.22-3.72,2.94-1.66.72-3.7,1.08-6.13,1.08Z"/>
</svg>